<svg xmlns="http://www.w3.org/2000/svg" id="logo_ookla" viewBox="0 0 71 30">
  <path d="M45.987 22.642L35.044 11.698v1.932l9.012 9.012zM43.238 22.642l-8.194-8.194v1.954l6.24 6.24zM40.442 22.642l-5.398-5.398v1.93l3.468 3.468zM45.75 8.47V6.54l-7.556 7.555.965.965zM48.518 1l-11.71 11.71.965.964L48.518 2.93zM45.745 1L35.42 11.323l.966.965 9.36-9.357zM13.734 15.552c0-3.103-2.103-5.645-5.347-5.645-3.243 0-5.344 2.543-5.344 5.645 0 3.104 2.1 5.647 5.344 5.647 3.245 0 5.347-2.544 5.347-5.648M1 15.552c0-4.204 3.063-7.448 7.387-7.448 4.325 0 7.39 3.243 7.39 7.448S12.71 23 8.386 23 1 19.757 1 15.552M29.358 15.552c0-3.103-2.103-5.645-5.346-5.645s-5.346 2.543-5.346 5.645c0 3.104 2.103 5.647 5.346 5.647 3.244 0 5.346-2.544 5.346-5.648m-12.734 0c0-4.204 3.063-7.448 7.39-7.448 4.324 0 7.387 3.243 7.387 7.448S28.34 23 24.014 23c-4.326 0-7.39-3.243-7.39-7.448M46.592 8.464h1.922v12.374h7.057v1.802h-8.978zM63.14 10.947h-.04L58.333 22.64h-2.16L62.14 8.464h2.082l5.84 14.176h-2.16zM32.437 8.465h1.946v14.177h-1.946zM69.386 8.46c.16 0 .318.042.47.125.155.083.274.2.36.355a.97.97 0 0 1 0 .958.963.963 0 0 1-1.665 0 .963.963 0 0 1 .362-1.313c.156-.082.313-.124.474-.124zm0 .16a.82.82 0 0 0-.394.105.797.797 0 0 0-.3 1.095.805.805 0 0 0 1.093.296.752.752 0 0 0 .295-.295.81.81 0 0 0-.003-.8.74.74 0 0 0-.3-.295.79.79 0 0 0-.39-.104zm-.42 1.332V8.92h.354c.12 0 .21.008.263.028a.268.268 0 0 1 .178.252c0 .075-.027.14-.08.197a.32.32 0 0 1-.215.094.323.323 0 0 1 .088.056c.042.04.093.11.152.205l.126.203h-.203l-.09-.163c-.073-.128-.13-.208-.175-.24-.03-.024-.075-.035-.134-.035h-.098v.438h-.165zm.166-.582h.203c.096 0 .163-.015.197-.043a.142.142 0 0 0 .053-.115c0-.03-.01-.058-.026-.082a.15.15 0 0 0-.07-.053.522.522 0 0 0-.168-.018h-.19v.31z"/>
</svg>